<svg xmlns="http://www.w3.org/2000/svg" width="62" height="65" fill="none"><path fill="#33CFAA" fill-rule="evenodd" d="m60.625 30.729-2.723-1.093V27.9c.038-10.658-7.174-20.168-17.963-23.685V1.768c0-.727-.632-1.316-1.41-1.316h-15.1c-.778 0-1.41.59-1.41 1.316v2.46C11.229 7.745 4.018 17.255 4.056 27.913v1.75l-2.695 1.066c-.522.205-.861.683-.861 1.21v6.908c0 .727.632 1.316 1.411 1.316h1.835v2.632c0 .726.631 1.316 1.41 1.316h5.066a19.187 19.187 0 0 0 2.103 4.71L8.74 52.164a1.253 1.253 0 0 0 0 1.855l5.997 5.592c.55.51 1.439.51 1.99 0l3.583-3.342a22.19 22.19 0 0 0 5.038 1.96v4.724c0 .726.632 1.316 1.411 1.316h8.466c.78 0 1.411-.59 1.411-1.316V58.23a22.173 22.173 0 0 0 5.052-1.96l3.584 3.342c.55.51 1.44.51 1.99 0l5.997-5.592a1.253 1.253 0 0 0 0-1.855l-3.585-3.343a19.188 19.188 0 0 0 2.103-4.71h5.066c.779 0 1.41-.59 1.41-1.316v-2.632h1.835c.78 0 1.411-.59 1.411-1.316V31.94c-.003-.531-.348-1.009-.875-1.21ZM24.813 3.096h12.304v21.987H24.841l-.028-21.987Zm25.935 38.382h4.699l-.014-1.316H42.522c-.644 4.953-4.83 8.856-10.142 9.457-6.375.722-12.17-3.512-12.944-9.457H6.54v1.316h4.698c.677-.015 1.268.422 1.411 1.04a16.716 16.716 0 0 0 2.625 5.763 1.25 1.25 0 0 1-.184 1.644l-3.372 3.145 3.993 3.724 3.373-3.145a1.49 1.49 0 0 1 1.764-.171 19.251 19.251 0 0 0 6.208 2.408c.662.133 1.13.684 1.115 1.316v4.473h5.644v-4.434c-.015-.631.453-1.183 1.115-1.316a19.315 19.315 0 0 0 6.208-2.407 1.488 1.488 0 0 1 1.764.17l3.373 3.145 4.035-3.737-3.372-3.145a1.25 1.25 0 0 1-.183-1.644 16.681 16.681 0 0 0 2.582-5.79c.142-.617.734-1.054 1.41-1.039Zm-28.433-1.316h17.37c-.776 4.477-5.297 7.519-10.097 6.795-3.745-.565-6.681-3.303-7.287-6.795h.014ZM3.308 37.532h55.384v-4.698l-2.723-1.092c-.523-.205-.861-.683-.861-1.21v-2.633c.04-9.2-5.967-17.488-15.14-20.882V26.4c0 .726-.633 1.315-1.412 1.315H23.43c-.78 0-1.411-.59-1.411-1.315V7.017C12.86 10.412 6.86 18.683 6.892 27.873v2.632c0 .528-.339 1.005-.86 1.21l-2.724 1.093v4.724Z" clip-rule="evenodd"/></svg>