<svg width="62" height="67" viewBox="0 0 62 67" fill="none" xmlns="http://www.w3.org/2000/svg">
    <path fill-rule="evenodd" clip-rule="evenodd"
        d="M50.7634 30.0525L50.7634 64.7543C50.7634 65.4958 50.1108 66.0975 49.3066 66.0975H41.8901C41.0859 66.0975 40.4333 65.4958 40.4333 64.7538L40.4333 31.7317C40.4333 30.9902 41.0859 30.3884 41.8901 30.3884H43.7118L43.7118 12.0502C43.7118 11.3087 44.3644 10.7065 45.1686 10.7065L54.0271 10.7065C55.9213 10.7065 57.2473 9.05413 58.0194 7.71086L49.5396 7.71086C48.7354 7.71086 48.0828 7.1091 48.0828 6.36714V3.06247L25.9356 3.06247L8.3638 10.2231L31.21 10.2231C32.0142 10.2231 32.6673 10.8248 32.6673 11.5663V12.8026H34.4302C35.2344 12.8026 35.8871 13.4044 35.8871 14.1459C35.8871 14.8874 35.2344 15.4891 34.4302 15.4891H32.6673V18.7406H34.4302C35.2344 18.7406 35.8871 19.3428 35.8871 20.0843C35.8871 20.8258 35.2344 21.4275 34.4302 21.4275H32.6673V24.679H34.4302C35.2344 24.679 35.8871 25.2807 35.8871 26.0222C35.8871 26.7637 35.2344 27.3655 34.4302 27.3655H32.6673V30.3884H33.8763C34.6805 30.3884 35.3337 30.9902 35.3337 31.7317L35.3337 64.7538C35.3337 65.4953 34.6805 66.0971 33.8763 66.0971H25.4982C24.694 66.0971 24.0414 65.4953 24.0414 64.7538L24.0414 44.4005C19.7341 42.4819 15.1592 41.1263 10.4471 40.3702C3.04546 39.255 1.09298 34.2575 1.09298 31.7722C1.09298 31.0302 1.74562 30.4284 2.54982 30.4284L29.7532 30.4284L29.7532 12.9637L1.45731 12.9637C0.757778 12.9783 0.147106 12.5322 -7.62939e-06 11.9022V11.62C0.00443649 11.0893 0.347046 10.61 0.874287 10.3978L25.0465 0.496569C25.2301 0.419642 25.4286 0.378219 25.6295 0.375488L49.5396 0.375488C50.3438 0.375488 50.9969 0.977248 50.9964 1.71875V5.02388L60.1758 4.93011C60.3333 4.92465 60.4922 4.94195 60.6438 4.98246C61.4159 5.19185 61.8587 5.93745 61.6331 6.64936C61.5457 6.95844 59.4476 13.367 54.0419 13.367H46.6551V21.2127L54.7854 21.2127C60.6132 21.4949 61.6914 28.2522 61.6914 28.5344C61.7003 28.5963 61.7032 28.6596 61.7032 28.721C61.6973 29.4625 61.0387 30.0593 60.2345 30.0525L50.7634 30.0525ZM32.4196 35.7625V33.0755L4.28415 33.0619C4.82324 34.5936 6.36745 36.9847 10.928 37.6697C16.2493 38.5296 21.3968 40.1282 26.1978 42.4123C26.6658 42.6486 26.9571 43.1028 26.9556 43.5944L26.9556 63.3837H32.4196V62.2011H30.6566C29.852 62.2011 29.1993 61.5993 29.1993 60.8578C29.1993 60.1163 29.852 59.5146 30.6566 59.5146H32.4196V56.2632H30.6566C29.852 56.2632 29.1993 55.6614 29.1993 54.9199C29.1993 54.1784 29.852 53.5762 30.6566 53.5762H32.4196V50.3253H30.6566C29.852 50.3253 29.1993 49.7235 29.1993 48.982C29.1993 48.2401 29.852 47.6383 30.6566 47.6383H32.4196L32.4196 44.3874H30.6566C29.852 44.3874 29.1993 43.7856 29.1993 43.0437C29.1993 42.3022 29.852 41.7004 30.6566 41.7004H32.4196V38.4495H30.6566C29.852 38.4495 29.1993 37.8473 29.1993 37.1058C29.1993 36.3643 29.852 35.7625 30.6566 35.7625H32.4196ZM46.6254 30.3885V23.8324L54.6832 23.8324C56.7957 23.9398 57.8595 25.8744 58.3695 27.3119L49.2918 27.3119C48.4876 27.3119 47.8349 27.9137 47.8349 28.6556V30.3348L46.6254 30.3885ZM43.3474 33.0754L43.3474 63.4105H47.8492L47.8492 33.0754H43.3474Z"
        fill="#33CFAA" />
</svg>