<svg xmlns="http://www.w3.org/2000/svg" width="62" height="67" fill="none"><path fill="#33CFAA" fill-rule="evenodd" d="M50.763 30.052v34.702c0 .742-.652 1.343-1.456 1.343H41.89c-.804 0-1.457-.601-1.457-1.343V31.732c0-.742.653-1.344 1.457-1.344h1.822V12.05c0-.741.652-1.344 1.457-1.344h8.858c1.894 0 3.22-1.652 3.992-2.995h-8.48c-.804 0-1.456-.602-1.456-1.344V3.062H25.936L8.364 10.223H31.21c.804 0 1.457.602 1.457 1.343v1.237h1.763c.804 0 1.457.601 1.457 1.343 0 .741-.653 1.343-1.457 1.343h-1.763v3.252h1.763c.804 0 1.457.602 1.457 1.343 0 .742-.653 1.343-1.457 1.343h-1.763v3.252h1.763c.804 0 1.457.602 1.457 1.343 0 .742-.653 1.344-1.457 1.344h-1.763v3.022h1.21c.803 0 1.457.602 1.457 1.344v33.022c0 .741-.654 1.343-1.458 1.343h-8.378c-.804 0-1.457-.602-1.457-1.343V44.4a54.732 54.732 0 0 0-13.594-4.03c-7.402-1.115-9.354-6.112-9.354-8.598 0-.742.653-1.344 1.457-1.344h27.203V12.964H1.457c-.7.014-1.31-.432-1.457-1.062v-.282c.004-.53.347-1.01.874-1.222L25.047.497c.183-.077.382-.119.582-.122h23.91c.805 0 1.458.602 1.457 1.344v3.305l9.18-.094c.157-.005.316.012.468.052.772.21 1.215.955.99 1.667-.088.31-2.186 6.718-7.592 6.718h-7.387v7.846h8.13c5.828.282 6.906 7.04 6.906 7.321.01.062.012.126.012.187-.006.741-.664 1.338-1.469 1.331h-9.47Zm-18.343 5.71v-2.687l-28.136-.013c.54 1.532 2.083 3.923 6.644 4.608a56.555 56.555 0 0 1 15.27 4.742c.468.237.76.69.758 1.182v19.79h5.464V62.2h-1.763c-.805 0-1.458-.602-1.458-1.343 0-.742.653-1.343 1.458-1.343h1.763v-3.252h-1.763c-.805 0-1.458-.602-1.458-1.343 0-.742.653-1.344 1.458-1.344h1.763v-3.25h-1.763c-.805 0-1.458-.602-1.458-1.344 0-.742.653-1.344 1.458-1.344h1.763v-3.25h-1.763c-.805 0-1.458-.602-1.458-1.344 0-.742.653-1.344 1.458-1.344h1.763v-3.25h-1.763c-.805 0-1.458-.603-1.458-1.344 0-.742.653-1.343 1.458-1.343h1.763Zm14.205-5.373v-6.557h8.058c2.113.108 3.176 2.042 3.687 3.48h-9.078c-.804 0-1.457.602-1.457 1.344v1.679l-1.21.053Zm-3.278 2.686V63.41h4.502V33.075h-4.502Z" clip-rule="evenodd"/></svg>