<svg xmlns="http://www.w3.org/2000/svg" width="61" height="68" fill="none"><path fill="#33CFAA" fill-rule="evenodd" d="M19.383 66.178V19.452H42.6c.773 0 1.4-.6 1.4-1.338V2.18c0-.739-.627-1.339-1.4-1.339H1.4c-.773 0-1.4.6-1.4 1.34v63.996c0 .739.627 1.339 1.4 1.339h16.583c.773 0 1.4-.6 1.4-1.34ZM41.2 3.52v13.254H18.557L4.772 3.52h36.429ZM2.799 5.42V64.84l13.785.188v-4.419h-3.47c-.773 0-1.4-.6-1.4-1.338 0-.74.627-1.34 1.4-1.34h3.47v-2.677h-3.47c-.773 0-1.4-.6-1.4-1.339 0-.74.627-1.339 1.4-1.339h3.47v-2.677h-6.437c-.773 0-1.4-.6-1.4-1.34 0-.738.627-1.338 1.4-1.338h6.437v-2.678h-3.47c-.773 0-1.4-.6-1.4-1.338 0-.74.627-1.34 1.4-1.34h3.47v-2.677h-3.47c-.773 0-1.4-.6-1.4-1.339 0-.74.627-1.339 1.4-1.339h3.47v-2.677h-6.437c-.773 0-1.4-.6-1.4-1.34 0-.738.627-1.338 1.4-1.338h6.437v-2.678h-3.47c-.773 0-1.4-.6-1.4-1.339s.627-1.338 1.4-1.338h3.47V23.12h-3.47c-.773 0-1.4-.6-1.4-1.339 0-.74.627-1.339 1.4-1.339h3.47V18.61L2.8 5.421Z" clip-rule="evenodd"/><path fill="#33CFAA" fill-rule="evenodd" d="M21 34.571v.014-.014Zm0 .004c.004.286.102.565.28.795l9.924 13.046s.112.082.168.136a.454.454 0 0 1 .052.062c.024.032.045.062.088.087l19.439 13.791c1.444 1.238 3.5 1.56 5.277.826a6.08 6.08 0 0 0 2.33-1.95l1.179-1.583A5.557 5.557 0 0 0 61 56.51c-.058-1.66-.967-3.182-2.428-4.06L39.077 38.712a1.434 1.434 0 0 0-.252-.108s-.085 0-.127-.08l-15.845-5.225c-.734-.24-1.532.14-1.778.848a1.32 1.32 0 0 0-.075.428Zm35.916 20.094a2.478 2.478 0 0 1 1.29 1.868 2.967 2.967 0 0 1-.729 1.678l-1.179 1.543a3.395 3.395 0 0 1-1.235 1.096l-.01.005c-.262.112-1.032.443-2.432-.546l-1.263-.893 2.147-2.815 2.133-2.829 1.278.893Zm-4.856-.77 1.32-1.733-14.794-10.462-4.295 5.63 14.794 10.462 1.319-1.72-11.425-8.12a1.368 1.368 0 0 1-.14-.1 1.32 1.32 0 0 1-.18-1.905 1.438 1.438 0 0 1 1.976-.174l11.425 8.121ZM36.018 40.484l-3.692 4.846-2.287-3.005 2.315-3.045 3.664 1.204Zm-7.72-.446 1.278-1.678-3.397-1.11 2.12 2.788Z" clip-rule="evenodd"/></svg>