<svg width="31" height="30" viewBox="0 0 31 30" fill="none" xmlns="http://www.w3.org/2000/svg">
<g clip-path="url(#clip0_87_602)">
<path d="M19.7471 6.25C20.968 6.48821 22.0901 7.08532 22.9697 7.96492C23.8493 8.84452 24.4464 9.96658 24.6846 11.1875L19.7471 6.25ZM19.7471 1.25C22.2837 1.5318 24.6491 2.66772 26.4549 4.47126C28.2607 6.2748 29.3996 8.63876 29.6846 11.175L19.7471 1.25ZM28.4346 21.15V24.9C28.436 25.2481 28.3647 25.5927 28.2252 25.9117C28.0858 26.2307 27.8812 26.517 27.6247 26.7523C27.3682 26.9877 27.0653 27.1669 26.7355 27.2784C26.4058 27.3899 26.0563 27.4313 25.7096 27.4C21.8632 26.9821 18.1684 25.6677 14.9221 23.5625C11.9019 21.6433 9.34128 19.0827 7.42211 16.0625C5.30958 12.8015 3.99491 9.08874 3.58461 5.225C3.55337 4.87933 3.59445 4.53095 3.70523 4.20203C3.81602 3.87311 3.99407 3.57086 4.22807 3.31453C4.46206 3.05819 4.74686 2.85339 5.06435 2.71315C5.38183 2.57292 5.72503 2.50033 6.07211 2.5H9.82211C10.4287 2.49403 11.0168 2.70885 11.4768 3.10442C11.9368 3.49998 12.2372 4.04931 12.3221 4.65C12.4804 5.85008 12.7739 7.02841 13.1971 8.1625C13.3653 8.6099 13.4017 9.09614 13.302 9.5636C13.2023 10.0311 12.9707 10.4601 12.6346 10.8L11.0471 12.3875C12.8266 15.5169 15.4177 18.1081 18.5471 19.8875L20.1346 18.3C20.4745 17.9639 20.9036 17.7323 21.371 17.6326C21.8385 17.5329 22.3247 17.5693 22.7721 17.7375C23.9062 18.1607 25.0845 18.4542 26.2846 18.6125C26.8918 18.6982 27.4464 19.004 27.8428 19.4719C28.2392 19.9397 28.4498 20.537 28.4346 21.15Z" stroke="#486A6F" stroke-width="2" stroke-linecap="round" stroke-linejoin="round"/>
</g>
<defs>
<clipPath id="clip0_87_602">
<rect width="30" height="30" fill="white" transform="translate(0.93457)"/>
</clipPath>
</defs>
</svg>
