<svg xmlns="http://www.w3.org/2000/svg" width="40" height="40" fill="none"><g clip-path="url(#a)"><circle cx="20" cy="20" r="20" fill="#fff"/><path fill="#154142" d="M29.3 15.645a2.392 2.392 0 0 0-1.687-1.723c-1.511-.422-7.488-.422-7.488-.422s-6.012 0-7.523.422a2.391 2.391 0 0 0-1.688 1.723c-.422 1.476-.422 4.64-.422 4.64s0 3.13.422 4.64c.211.845.879 1.477 1.688 1.688 1.511.387 7.523.387 7.523.387s5.977 0 7.488-.387a2.345 2.345 0 0 0 1.688-1.687c.422-1.512.422-4.64.422-4.64s0-3.165-.422-4.642Zm-11.144 7.488v-5.695l4.992 2.847-4.992 2.848Z"/></g><defs><clipPath id="a"><path fill="#fff" d="M0 0h40v40H0z"/></clipPath></defs></svg>