<svg width="62" height="65" viewBox="0 0 62 65" fill="none" xmlns="http://www.w3.org/2000/svg">
    <path fill-rule="evenodd" clip-rule="evenodd"
        d="M60.6253 30.7285L57.9018 29.6364V27.8999C57.9401 17.2417 50.7284 7.73233 39.9391 4.21514V1.76778C39.9391 1.04133 39.3068 0.451782 38.5283 0.451782H23.4296C22.6511 0.451782 22.0189 1.04133 22.0189 1.76778V4.22807C11.2295 7.74526 4.01785 17.2547 4.05611 27.9128V29.6627L1.36081 30.7285C0.838586 30.9341 0.5 31.4117 0.5 31.9393V38.8475C0.5 39.5735 1.13222 40.163 1.91125 40.163H3.74574V42.795C3.74574 43.521 4.37748 44.1105 5.15651 44.1105H10.2224C10.7035 45.7579 11.4103 47.3423 12.3247 48.8211L8.74084 52.1635C8.19327 52.6763 8.19327 53.5053 8.74084 54.0186L14.7378 59.6108C15.2878 60.1214 16.1768 60.1214 16.7273 59.6108L20.3111 56.2689C21.8931 57.1215 23.5865 57.7793 25.3488 58.2293V62.9532C25.3488 63.6792 25.981 64.2687 26.76 64.2687H35.2261C36.0051 64.2687 36.6374 63.6792 36.6374 62.9532V58.2293C38.4039 57.7806 40.1026 57.1229 41.6889 56.2689L45.2732 59.6108C45.8232 60.1214 46.7122 60.1214 47.2626 59.6108L53.2596 54.0186C53.8072 53.5053 53.8072 52.6763 53.2596 52.1635L49.6753 48.8211C50.5897 47.3423 51.297 45.7579 51.7781 44.1105H56.8435C57.6225 44.1105 58.2547 43.521 58.2547 42.795V40.163H60.0892C60.8683 40.163 61.5 39.5735 61.5 38.8475V31.9393C61.4971 31.4077 61.1519 30.9301 60.6253 30.7285ZM24.8126 3.09668H37.1171V25.0837H24.8408L24.8126 3.09668ZM50.7479 41.479H55.4465L55.4327 40.163H42.5215C41.8778 45.1157 37.6913 49.0187 32.3801 49.6198C26.0049 50.3422 20.2097 46.108 19.4364 40.163H6.53955V41.479H11.2381C11.9153 41.4643 12.5064 41.9013 12.6494 42.5181C13.1415 44.5721 14.0305 46.5249 15.2739 48.2815C15.6364 48.8015 15.5589 49.4869 15.0903 49.9262L11.7178 53.071L15.711 56.7951L19.0835 53.6503C19.555 53.2132 20.2901 53.141 20.8477 53.479C22.7424 54.6291 24.8466 55.4448 27.056 55.8872C27.7179 56.02 28.1866 56.5712 28.1708 57.2027V61.6765H33.8148V57.2424C33.7995 56.6109 34.2677 56.0593 34.9296 55.9264C37.1395 55.4831 39.2432 54.667 41.1384 53.5187C41.696 53.1802 42.4311 53.2529 42.9021 53.6895L46.2746 56.8344L50.3104 53.0973L46.9379 49.9525C46.4697 49.5132 46.3918 48.8278 46.7547 48.3078C47.9866 46.5405 48.8613 44.5788 49.3367 42.5181C49.4792 41.9013 50.0708 41.4643 50.7479 41.479ZM22.3149 40.163H39.6851C38.9089 44.6395 34.3877 47.6818 29.5878 46.958C25.8428 46.3934 22.9065 43.6553 22.301 40.163H22.3149ZM3.30811 37.5316H58.6918V32.8339L55.9687 31.7418C55.4465 31.5367 55.1079 31.059 55.1079 30.5315V27.8995C55.1476 18.6982 49.1406 10.4111 39.9672 7.01746V26.3998C39.9672 27.1258 39.335 27.7153 38.556 27.7153H23.4296C22.6505 27.7153 22.0188 27.1258 22.0188 26.3998V7.01746C12.8607 10.4125 6.86087 18.6835 6.89195 27.8732V30.5047C6.89195 31.0327 6.55337 31.5103 6.03114 31.7155L3.30811 32.8076V37.5316Z"
        fill="#33CFAA" />
</svg>