<svg xmlns="http://www.w3.org/2000/svg" width="40" height="40" fill="none"><g clip-path="url(#a)"><circle cx="20" cy="20" r="20" fill="#fff"/><path fill="#154142" d="M15.516 27V16.488h-3.27V27h3.27Zm-1.653-11.918c1.055 0 1.899-.879 1.899-1.934 0-1.02-.844-1.863-1.899-1.863-1.02 0-1.863.844-1.863 1.863 0 1.055.844 1.934 1.863 1.934ZM27.715 27h.035v-5.766c0-2.812-.633-4.992-3.938-4.992-1.582 0-2.636.88-3.093 1.688h-.035v-1.442h-3.13V27h3.27v-5.203c0-1.371.246-2.672 1.934-2.672 1.687 0 1.723 1.547 1.723 2.777V27h3.234Z"/></g><defs><clipPath id="a"><path fill="#fff" d="M0 0h40v40H0z"/></clipPath></defs></svg>