<svg xmlns="http://www.w3.org/2000/svg" width="40" height="40" fill="none"><g clip-path="url(#a)"><circle cx="20" cy="20" r="20" fill="#fff"/><path fill="#154142" d="M27.137 16.594a7.819 7.819 0 0 0 1.828-1.899 6.916 6.916 0 0 1-2.11.563 3.607 3.607 0 0 0 1.618-2.04 7.8 7.8 0 0 1-2.32.915 3.691 3.691 0 0 0-2.708-1.16 3.69 3.69 0 0 0-3.691 3.691c0 .281.035.563.105.844a10.71 10.71 0 0 1-7.629-3.867 3.591 3.591 0 0 0-.492 1.863c0 1.266.633 2.39 1.653 3.059-.598-.036-1.196-.176-1.688-.457v.035a3.696 3.696 0 0 0 2.953 3.62c-.281.071-.633.141-.949.141-.246 0-.457-.035-.703-.07.457 1.477 1.828 2.531 3.445 2.566a7.421 7.421 0 0 1-4.57 1.582c-.316 0-.598-.035-.879-.07 1.617 1.055 3.55 1.652 5.66 1.652 6.785 0 10.477-5.59 10.477-10.476v-.492Z"/></g><defs><clipPath id="a"><path fill="#fff" d="M0 0h40v40H0z"/></clipPath></defs></svg>